<svg width="24" height="24" viewBox="0 0 24 24" fill="none" xmlns="http://www.w3.org/2000/svg">
<path d="M18 12H17.199C16.369 12 15.954 12 15.61 12.195C15.266 12.389 15.053 12.745 14.626 13.456L14.596 13.508C14.198 14.171 13.999 14.502 13.71 14.497C13.421 14.492 13.234 14.153 12.861 13.475L11.174 10.408C10.827 9.776 10.654 9.46 10.376 9.445C10.099 9.43 9.892 9.725 9.479 10.315L9.196 10.72C8.756 11.347 8.537 11.66 8.212 11.83C7.886 12 7.503 12 6.738 12H6" stroke="white" stroke-width="1.5" stroke-linecap="round"/>
<path d="M12 5.5L11.46 6.02C11.53 6.09259 11.6138 6.15032 11.7066 6.18976C11.7994 6.2292 11.8992 6.24952 12 6.24952C12.1008 6.24952 12.2006 6.2292 12.2934 6.18976C12.3862 6.15032 12.47 6.09259 12.54 6.02L12 5.5ZM2.657 13.397C2.76506 13.5591 2.93198 13.6729 3.12241 13.7141C3.31284 13.7553 3.51185 13.7208 3.67729 13.6179C3.84273 13.5149 3.96161 13.3517 4.00878 13.1626C4.05595 12.9736 4.0277 12.7736 3.93 12.605L2.657 13.397ZM6.53 15.773C6.46027 15.7034 6.37751 15.6482 6.28645 15.6106C6.19539 15.573 6.09782 15.5537 5.99929 15.5538C5.80032 15.5539 5.60956 15.6332 5.469 15.774C5.3994 15.8437 5.34422 15.9265 5.3066 16.0176C5.26898 16.1086 5.24967 16.2062 5.24976 16.3047C5.24995 16.5037 5.32917 16.6944 5.47 16.835L6.53 15.773ZM2.75 9.137C2.75 6.334 4.007 4.595 5.58 3.997C7.155 3.397 9.351 3.829 11.46 6.02L12.54 4.981C10.15 2.496 7.345 1.72 5.046 2.595C2.743 3.471 1.25 5.888 1.25 9.137H2.75ZM15.503 19.5C16.995 18.323 18.783 16.746 20.206 14.984C21.613 13.241 22.75 11.209 22.75 9.137H21.25C21.25 10.688 20.378 12.383 19.039 14.042C17.716 15.681 16.024 17.179 14.574 18.322L15.503 19.5ZM22.75 9.137C22.75 5.887 21.257 3.471 18.954 2.595C16.655 1.721 13.851 2.495 11.46 4.981L12.54 6.02C14.649 3.83 16.845 3.398 18.42 3.997C19.993 4.595 21.25 6.334 21.25 9.137H22.75ZM8.497 19.5C9.772 20.504 10.65 21.236 12 21.236V19.737C11.27 19.737 10.816 19.417 9.426 18.322L8.497 19.5ZM14.574 18.322C13.184 19.417 12.731 19.737 12 19.737V21.236C13.35 21.236 14.228 20.504 15.503 19.5L14.574 18.322ZM3.93 12.605C3.184 11.406 2.75 10.231 2.75 9.137H1.25C1.25 10.617 1.83 12.069 2.657 13.397L3.93 12.605ZM9.426 18.322C8.41317 17.5275 7.44628 16.6771 6.53 15.773L5.47 16.835C6.42691 17.7811 7.43759 18.6703 8.497 19.5L9.426 18.322Z" fill="white"/>
</svg>
