<svg width="27" height="26" viewBox="0 0 27 26" fill="none" xmlns="http://www.w3.org/2000/svg">
<path d="M23.594 3.82512e-07C23.338 3.82512e-07 23.07 0.0860004 22.875 0.281L22.469 0.719L22.281 0.563C22.2346 0.51454 22.1789 0.475974 22.1172 0.449628C22.0555 0.423281 21.9891 0.409698 21.922 0.409698C21.8549 0.409698 21.7885 0.423281 21.7268 0.449628C21.6651 0.475974 21.6094 0.51454 21.563 0.563C21.5145 0.609395 21.476 0.665121 21.4496 0.726819C21.4233 0.788518 21.4097 0.854912 21.4097 0.922C21.4097 0.989089 21.4233 1.05548 21.4496 1.11718C21.476 1.17888 21.5145 1.23461 21.563 1.281L21.719 1.469L21.469 1.719L21.281 1.562C21.2346 1.51354 21.1789 1.47497 21.1172 1.44863C21.0555 1.42228 20.9891 1.4087 20.922 1.4087C20.8549 1.4087 20.7885 1.42228 20.7268 1.44863C20.6651 1.47497 20.6094 1.51354 20.563 1.562C20.5142 1.60842 20.4754 1.66427 20.4489 1.72615C20.4223 1.78804 20.4086 1.85467 20.4086 1.922C20.4086 1.98933 20.4223 2.05596 20.4489 2.11785C20.4754 2.17973 20.5142 2.23558 20.563 2.282L20.719 2.469L20.531 2.656C20.4097 2.77603 20.3226 2.9262 20.2787 3.09107C20.2348 3.25594 20.2356 3.42954 20.281 3.594L15.906 7.969C15.003 7.179 13.637 6.25 12.156 6.25C11.499 6.25 10.824 6.45 10.156 6.906C8.674 7.919 8.958 9.454 8.031 10.344C6.991 11.344 4.148 10.538 1.531 13.156C-1.086 15.772 0.0739996 19.391 3.406 22.594C5.404 24.672 7.554 25.906 9.531 25.906C10.722 25.906 11.859 25.454 12.844 24.469C15.461 21.852 14.655 19.011 15.656 17.969C16.546 17.044 18.111 17.358 19.125 15.875C20.612 13.702 19.177 11.404 18.031 10.094L22.406 5.719C22.736 5.803 23.085 5.728 23.344 5.469L23.531 5.281L23.719 5.438C23.7619 5.48674 23.8147 5.52584 23.8738 5.55273C23.9329 5.57962 23.9971 5.59368 24.062 5.594C24.2027 5.59251 24.3372 5.53619 24.437 5.437C24.4855 5.39061 24.524 5.33488 24.5504 5.27318C24.5767 5.21148 24.5903 5.14509 24.5903 5.078C24.5903 5.01091 24.5767 4.94452 24.5504 4.88282C24.524 4.82112 24.4855 4.7654 24.437 4.719L24.281 4.531L24.531 4.281L24.719 4.438C24.7619 4.48674 24.8147 4.52584 24.8738 4.55273C24.9329 4.57962 24.9971 4.59368 25.062 4.594C25.2027 4.59251 25.3372 4.53619 25.437 4.437C25.4855 4.39061 25.524 4.33488 25.5504 4.27318C25.5767 4.21148 25.5903 4.14509 25.5903 4.078C25.5903 4.01091 25.5767 3.94452 25.5504 3.88282C25.524 3.82112 25.4855 3.7654 25.437 3.719L25.281 3.531L25.719 3.125C25.8118 3.03296 25.8855 2.92346 25.9358 2.8028C25.9861 2.68214 26.0119 2.55272 26.0119 2.422C26.0119 2.29128 25.9861 2.16186 25.9358 2.0412C25.8855 1.92055 25.8118 1.81104 25.719 1.719L24.28 0.28C24.1906 0.189287 24.0837 0.117691 23.9658 0.0695583C23.8478 0.0214256 23.7213 -0.00223925 23.594 3.82512e-07ZM23.531 1.188C23.608 1.188 23.691 1.192 23.75 1.25C23.8064 1.30898 23.8378 1.38742 23.8378 1.469C23.8378 1.55058 23.8064 1.62902 23.75 1.688L21.75 3.688C21.6917 3.746 21.6132 3.7793 21.531 3.781C21.449 3.77878 21.3709 3.74513 21.313 3.687C21.2569 3.62807 21.2257 3.54984 21.2257 3.4685C21.2257 3.38716 21.2569 3.30893 21.313 3.25L23.313 1.25C23.371 1.192 23.455 1.188 23.531 1.188ZM24.531 2.188C24.608 2.188 24.691 2.191 24.75 2.25C24.8066 2.30886 24.8382 2.38735 24.8382 2.469C24.8382 2.55065 24.8066 2.62914 24.75 2.688L22.75 4.688C22.6917 4.746 22.6132 4.7793 22.531 4.781C22.4491 4.77905 22.3711 4.74576 22.313 4.688C22.2566 4.62902 22.2252 4.55058 22.2252 4.469C22.2252 4.38742 22.2566 4.30898 22.313 4.25L24.313 2.25C24.371 2.192 24.455 2.188 24.531 2.188ZM12.156 7.655C13.116 7.655 14.13 8.307 14.906 8.968L11.562 12.312C11.488 12.304 11.42 12.28 11.344 12.28C10.7148 12.2821 10.1119 12.533 9.66695 12.978C9.22201 13.4229 8.97111 14.0258 8.969 14.655C8.97111 15.2842 9.22201 15.8871 9.66695 16.332C10.1119 16.777 10.7148 17.0279 11.344 17.03C11.9732 17.0279 12.5761 16.777 13.021 16.332C13.466 15.8871 13.7169 15.2842 13.719 14.655C13.719 14.579 13.695 14.511 13.688 14.436L17.062 11.062C17.93 12.068 18.91 13.686 17.969 15.062C17.663 15.508 17.278 15.672 16.594 15.905C15.992 16.11 15.239 16.36 14.625 16.999C13.951 17.7 13.801 18.622 13.625 19.593C13.403 20.812 13.154 22.19 11.844 23.499C11.156 24.187 10.398 24.53 9.531 24.53C8.014 24.53 6.194 23.484 4.406 21.624L4.375 21.593C2.53 19.822 1.484 18.01 1.469 16.5C1.459 15.619 1.803 14.855 2.5 14.156C3.81 12.846 5.188 12.596 6.406 12.375C7.377 12.199 8.3 12.018 9 11.344C9.634 10.736 9.885 10.001 10.094 9.406C10.334 8.724 10.484 8.372 10.938 8.062C11.326 7.797 11.728 7.655 12.156 7.655ZM5.562 16.28C5.47997 16.2822 5.40193 16.3159 5.344 16.374L4.719 17C4.66171 17.0585 4.62962 17.1371 4.62962 17.219C4.62962 17.3009 4.66171 17.3795 4.719 17.438L8.562 21.281C8.68 21.398 8.882 21.398 9 21.281L9.625 20.656C9.68152 20.5973 9.7131 20.519 9.7131 20.4375C9.7131 20.356 9.68152 20.2777 9.625 20.219L5.781 16.375C5.72307 16.3169 5.64503 16.2832 5.563 16.281L5.562 16.28Z" fill="white"/>
</svg>
