<svg width="24" height="24" viewBox="0 0 24 24" fill="none" xmlns="http://www.w3.org/2000/svg">
<path d="M2 21V18C2 17.7833 2.03333 17.575 2.1 17.375C2.16667 17.175 2.26667 16.9833 2.4 16.8L10.75 5.55L9.6 4C9.51667 3.88333 9.45833 3.76267 9.425 3.638C9.39167 3.51333 9.38333 3.38833 9.4 3.263C9.41667 3.13767 9.45833 3.01667 9.525 2.9C9.59167 2.78333 9.68333 2.68333 9.8 2.6C10.0333 2.43333 10.2833 2.36667 10.55 2.4C10.8167 2.43333 11.0333 2.56667 11.2 2.8L12 3.875L12.8 2.8C12.9667 2.56667 13.1833 2.43333 13.45 2.4C13.7167 2.36667 13.9667 2.43333 14.2 2.6C14.4333 2.76667 14.5667 2.98333 14.6 3.25C14.6333 3.51667 14.5667 3.76667 14.4 4L13.25 5.55L21.6 16.8C21.7333 16.9833 21.8333 17.175 21.9 17.375C21.9667 17.575 22 17.7833 22 18V21C22 21.2833 21.9043 21.521 21.713 21.713C21.5217 21.905 21.284 22.0007 21 22H3C2.71667 22 2.47933 21.904 2.288 21.712C2.09667 21.52 2.00067 21.2827 2 21ZM12 7.225L4 18V20H7L11.175 14.15C11.375 13.8667 11.65 13.725 12 13.725C12.35 13.725 12.625 13.8667 12.825 14.15L17 20H20V18L12 7.225ZM9.45 20H14.55L12 16.45L9.45 20Z" fill="white"/>
</svg>
